<svg width="40" height="40" viewBox="0 0 40 40" fill="none" xmlns="http://www.w3.org/2000/svg"><rect x=".5" y=".5" width="39" height="39" rx="4.5" fill="#fff" stroke="#BDBDBD"/><path d="M9.754 15.767a3.036 3.036 0 0 1 2.89-2.835c2.24-.11 5.443-.245 7.856-.245 2.413 0 5.615.134 7.856.245a3.036 3.036 0 0 1 2.89 2.835c.097 1.48.192 3.303.192 4.733 0 1.43-.095 3.252-.191 4.733a3.036 3.036 0 0 1-2.891 2.835c-2.24.11-5.443.244-7.856.244-2.413 0-5.615-.133-7.856-.244a3.036 3.036 0 0 1-2.89-2.835c-.097-1.48-.191-3.303-.191-4.733 0-1.43.094-3.252.19-4.733Z" fill="#FC0D1B"/><path d="M18.156 17.375v6.25l6.25-3.125-6.25-3.125Z" fill="#fff"/></svg>